External Loads File
version=1
nRows=69
nColumns=13
Range=5.000000e-03-10 seconds
endheader
time 	forceRightX 	forceRightY 	forceRightZ 	pointRightX 	pointRightY 	pointRightZ 	forceLeftX 	forceLeftY 	forceLeftZ 	pointLeftX 	pointLeftY 	pointLeftZ 		
0.005000 95.851432 269.395230 -0.000000 0.136562 0.318432 -0.125085 -125.639200 253.120339 -0.000000 0.461231 0.327517 -0.367231
0.010000 96.204532 269.704561 -0.000000 0.136564 0.318443 -0.125064 -126.649608 253.627441 -0.000000 0.461241 0.327491 -0.367230
0.015000 96.483931 270.048692 -0.000000 0.136560 0.318447 -0.125077 -127.654752 254.254686 -0.000000 0.461240 0.327503 -0.367226
0.020000 96.686977 270.426562 -0.000000 0.136564 0.318432 -0.125059 -128.582110 255.079644 -0.000000 0.461254 0.327493 -0.367229
0.025000 96.594909 270.934611 -0.000000 0.136584 0.318585 -0.125003 -129.634873 256.039497 -0.000000 0.461096 0.327916 -0.367361
0.030000 96.647221 271.445835 -0.000000 0.136568 0.318534 -0.124976 -130.429201 257.356170 -0.000000 0.461153 0.327925 -0.367296
0.035000 96.603965 272.068401 -0.000000 0.136583 0.318475 -0.124970 -131.191433 258.912489 -0.000000 0.461146 0.328002 -0.367314
0.040000 96.468567 272.808491 -0.000000 0.136570 0.318365 -0.124942 -131.872991 260.693734 -0.000000 0.461119 0.328069 -0.367290
0.045000 96.202097 273.679801 -0.000000 0.136579 0.318244 -0.124917 -132.463524 262.643971 -0.000000 0.461088 0.328165 -0.367283
0.050000 95.753595 274.695776 -0.000000 0.136567 0.318081 -0.124917 -132.992456 264.677104 -0.000000 0.461055 0.328292 -0.367296
0.055000 95.089225 275.853774 -0.000000 0.136549 0.317867 -0.124909 -133.494640 266.694607 -0.000000 0.461014 0.328483 -0.367324
0.060000 94.318926 277.094620 -0.000000 0.136548 0.317651 -0.124911 -133.892582 268.653813 -0.000000 0.460962 0.328702 -0.367332
0.065000 93.473909 278.393716 -0.000000 0.136526 0.317410 -0.124931 -134.231308 270.468074 -0.000000 0.460899 0.328979 -0.367330
0.070000 92.785217 279.672992 -0.000000 0.136516 0.317205 -0.124924 -134.402250 272.152085 -0.000000 0.460838 0.329223 -0.367327
0.075000 92.206778 280.955703 -0.000000 0.136497 0.316960 -0.124893 -134.584782 273.600813 -0.000000 0.460783 0.329538 -0.367341
0.080000 91.934936 282.184749 -0.000000 0.136490 0.316669 -0.124879 -134.724458 274.841433 -0.000000 0.460728 0.329806 -0.367333
0.085000 92.025864 283.344726 -0.000000 0.136456 0.316333 -0.124894 -134.880176 275.850305 -0.000000 0.460668 0.330066 -0.367342
0.090000 92.469039 284.438736 -0.000000 0.136419 0.315943 -0.124884 -135.131642 276.589041 -0.000000 0.460640 0.330401 -0.367368
0.095000 93.434819 285.410063 -0.000000 0.136364 0.315611 -0.124849 -135.336871 277.124492 -0.000000 0.460597 0.330764 -0.367362
0.100000 94.895852 286.251463 -0.000000 0.136316 0.315311 -0.124846 -135.490311 277.464208 -0.000000 0.460580 0.331134 -0.367354
0.105000 96.718670 286.955282 -0.000000 0.136232 0.314994 -0.124857 -135.608378 277.613734 -0.000000 0.460576 0.331473 -0.367328
0.110000 98.594182 287.535417 -0.000000 0.136138 0.314656 -0.124864 -135.791866 277.533315 -0.000000 0.460562 0.331887 -0.367342
0.115000 100.420568 287.923597 -0.000000 0.136060 0.314338 -0.124855 -135.896234 277.289682 -0.000000 0.460525 0.332258 -0.367495
0.120000 101.817387 288.174250 -0.000000 0.135967 0.313867 -0.124850 -136.081620 276.792793 -0.000000 0.460521 0.332637 -0.367513
0.125000 102.885352 288.223563 -0.000000 0.135885 0.313487 -0.124843 -136.148922 276.133581 -0.000000 0.460514 0.333048 -0.367490
0.130000 103.554893 288.114375 -0.000000 0.135797 0.313110 -0.124858 -136.172021 275.278593 -0.000000 0.460519 0.333492 -0.367481
0.135000 103.938001 287.855002 -0.000000 0.135688 0.312773 -0.124838 -136.119502 274.249642 -0.000000 0.460506 0.333959 -0.367468
0.140000 104.198450 287.438184 -0.000000 0.135599 0.312451 -0.124856 -135.932356 273.081276 -0.000000 0.460497 0.334352 -0.367483
0.145000 104.321020 286.903735 -0.000000 0.135494 0.312109 -0.124825 -135.708187 271.734929 -0.000000 0.460497 0.334744 -0.367469
0.150000 104.265559 286.287605 -0.000000 0.135376 0.311709 -0.124835 -135.539896 270.181536 -0.000000 0.460490 0.335193 -0.367454
0.155000 104.154138 285.573005 -0.000000 0.135274 0.311270 -0.124850 -135.341623 268.481059 -0.000000 0.460489 0.335609 -0.367459
0.160000 104.105420 284.753208 -0.000000 0.135158 0.310936 -0.124871 -135.011800 266.699172 -0.000000 0.460486 0.336024 -0.367429
0.165000 104.070083 283.877895 -0.000000 0.135054 0.310623 -0.124855 -134.585874 264.833395 -0.000000 0.460467 0.336410 -0.367408
0.170000 103.991740 282.990394 -0.000000 0.134957 0.310329 -0.124877 -134.093772 262.883753 -0.000000 0.460457 0.336819 -0.367372
0.175000 103.872955 282.109511 -0.000000 0.134870 0.309998 -0.124888 -133.529505 260.872002 -0.000000 0.460441 0.337196 -0.367376
0.180000 103.835042 281.209397 -0.000000 0.134757 0.309745 -0.124872 -132.814091 258.870433 -0.000000 0.460423 0.337545 -0.367362
0.185000 103.867215 280.310116 -0.000000 0.134671 0.309495 -0.124859 -132.014141 256.893522 -0.000000 0.460416 0.337841 -0.367356
0.190000 103.978254 279.417093 -0.000000 0.134598 0.309270 -0.124895 -131.179044 254.979685 -0.000000 0.460403 0.338120 -0.367333
0.195000 104.056443 278.564279 -0.000000 0.134528 0.309012 -0.124870 -130.447000 253.132376 -0.000000 0.460387 0.338442 -0.367315
0.200000 104.247967 277.671957 -0.000000 0.134461 0.308826 -0.124871 -129.684295 251.495423 -0.000000 0.460371 0.338686 -0.367299
0.205000 104.399094 276.769241 -0.000000 0.134386 0.308625 -0.124887 -129.002886 250.072320 -0.000000 0.460350 0.338873 -0.367291
0.210000 104.532398 275.828073 -0.000000 0.134332 0.308512 -0.124886 -128.353211 248.923898 -0.000000 0.460360 0.339011 -0.367365
0.215000 104.446177 274.913049 -0.000000 0.134273 0.308389 -0.124874 -127.894986 247.973588 -0.000000 0.460332 0.339175 -0.367358
0.220000 104.218222 273.992300 -0.000000 0.134228 0.308307 -0.124894 -127.532642 247.248552 -0.000000 0.460308 0.339280 -0.367349
0.225000 103.797739 273.097796 -0.000000 0.134184 0.308246 -0.124880 -127.280859 246.695139 -0.000000 0.460283 0.339360 -0.367329
0.230000 103.192086 272.253336 -0.000000 0.134148 0.308185 -0.124862 -127.114423 246.271324 -0.000000 0.460254 0.339416 -0.367328
0.235000 102.500590 271.455287 -0.000000 0.134104 0.308179 -0.124838 -126.965540 245.967430 -0.000000 0.460221 0.339446 -0.367346
0.240000 101.772927 270.719734 -0.000000 0.134069 0.308206 -0.124831 -126.852416 245.743879 -0.000000 0.460184 0.339463 -0.367334
0.245000 101.089767 270.046456 -0.000000 0.134041 0.308236 -0.124842 -126.765810 245.582866 -0.000000 0.460150 0.339435 -0.367341
0.250000 100.499204 269.438795 -0.000000 0.134009 0.308306 -0.124834 -126.689633 245.476577 -0.000000 0.460091 0.339404 -0.367267
0.255000 100.030899 268.899626 -0.000000 0.133966 0.308401 -0.124817 -126.595269 245.433554 -0.000000 0.460057 0.339327 -0.367260
0.260000 99.636888 268.462718 -0.000000 0.133930 0.308511 -0.124827 -126.524374 245.435385 -0.000000 0.460023 0.339227 -0.367249
0.265000 99.365497 268.132305 -0.000000 0.133889 0.308710 -0.124825 -126.439654 245.505257 -0.000000 0.459990 0.339119 -0.367238
0.270000 99.183785 267.941069 -0.000000 0.133850 0.308890 -0.124833 -126.377253 245.618063 -0.000000 0.459964 0.338957 -0.367210
0.275000 99.113526 267.891778 -0.000000 0.133818 0.309109 -0.124839 -126.315089 245.769670 -0.000000 0.459926 0.338790 -0.367229
0.280000 99.158270 267.982723 -0.000000 0.133783 0.309333 -0.124854 -126.233293 245.958826 -0.000000 0.459891 0.338575 -0.367235
0.285000 99.237832 268.234439 -0.000000 0.133776 0.309531 -0.124832 -126.168091 246.164096 -0.000000 0.459848 0.338341 -0.367233
0.290000 99.411816 268.612749 -0.000000 0.133762 0.309756 -0.124829 -126.031209 246.434946 -0.000000 0.459819 0.338045 -0.367222
0.295000 99.587130 269.137420 -0.000000 0.133784 0.309992 -0.124811 -125.925229 246.737928 -0.000000 0.459758 0.337772 -0.367211
0.300000 99.764541 269.783401 -0.000000 0.133788 0.310241 -0.124815 -125.919075 247.075342 -0.000000 0.459740 0.337538 -0.367224
0.305000 100.044135 270.477762 -0.000000 0.133771 0.310528 -0.124809 -125.992426 247.497743 -0.000000 0.459706 0.337243 -0.367242
0.310000 100.369442 271.205834 -0.000000 0.133751 0.310840 -0.124775 -126.230006 247.987428 -0.000000 0.459668 0.336934 -0.367257
0.315000 100.644693 271.976958 -0.000000 0.133762 0.311193 -0.124816 -126.707316 248.513160 -0.000000 0.459630 0.336735 -0.367261
0.320000 101.034851 272.708105 -0.000000 0.133771 0.311567 -0.124830 -127.224857 249.174041 -0.000000 0.459590 0.336425 -0.367262
0.325000 101.387087 273.426316 -0.000000 0.133755 0.311864 -0.124797 -127.853677 249.933227 -0.000000 0.459561 0.336078 -0.367273
0.330000 101.717535 274.085629 -0.000000 0.133759 0.312165 -0.124787 -128.511014 250.836311 -0.000000 0.459539 0.335722 -0.367280
0.335000 101.979189 274.663949 -0.000000 0.133810 0.312463 -0.124790 -129.187559 251.884439 -0.000000 0.459491 0.335376 -0.367271
0.340000 102.221053 275.115770 -0.000000 0.133848 0.312812 -0.124791 -129.803209 253.095061 -0.000000 0.459460 0.335023 -0.367267
0.345000 102.297674 275.482067 -0.000000 0.133858 0.313093 -0.124782 -130.461528 254.366978 -0.000000 0.459456 0.334701 -0.367133
